<svg width="206" height="67" viewBox="0 0 206 67" fill="none" xmlns="http://www.w3.org/2000/svg">
<path fill-rule="evenodd" clip-rule="evenodd" d="M158.645 12.0436C158.597 11.8024 158.466 11.5855 158.275 11.4299C158.085 11.2743 157.846 11.1897 157.6 11.1904C157.354 11.1912 157.116 11.2773 156.926 11.4341C156.737 11.5908 156.607 11.8085 156.56 12.05V12.0543L156.554 12.0755C156.526 12.2188 156.494 12.3612 156.458 12.5026C156.365 12.8837 156.257 13.2608 156.133 13.6331C155.825 14.5554 155.406 15.4606 154.926 15.9451C154.446 16.4275 153.545 16.8525 152.623 17.167C152.113 17.3394 151.593 17.4835 151.067 17.5984L151.046 17.6026C150.804 17.6498 150.585 17.7799 150.428 17.9706C150.271 18.1614 150.186 18.4008 150.186 18.6478C150.187 18.8947 150.273 19.1338 150.431 19.3239C150.589 19.514 150.808 19.6432 151.05 19.6894H151.054L151.076 19.6958C151.219 19.7234 151.361 19.7553 151.503 19.7914C151.794 19.8636 152.196 19.9699 152.633 20.1165C153.556 20.4246 154.461 20.8433 154.945 21.3235C155.428 21.8038 155.853 22.7048 156.167 23.627C156.34 24.1371 156.484 24.6564 156.599 25.1825L156.603 25.2038C156.65 25.4462 156.78 25.6646 156.971 25.8215C157.162 25.9784 157.401 26.064 157.648 26.0635C157.895 26.063 158.134 25.9764 158.324 25.8188C158.514 25.6611 158.643 25.4421 158.69 25.1995V25.1953L158.696 25.174C158.724 25.0307 158.755 24.8883 158.792 24.7469C158.864 24.4558 158.97 24.0541 159.117 23.6164C159.425 22.6941 159.843 21.7889 160.324 21.3044C160.804 20.822 161.705 20.397 162.627 20.0825C163.137 19.9101 163.657 19.7661 164.183 19.6511L164.204 19.6469C164.446 19.5997 164.665 19.4696 164.822 19.2789C164.979 19.0882 165.064 18.8487 165.064 18.6018C165.063 18.3548 164.977 18.1157 164.819 17.9256C164.661 17.7355 164.442 17.6063 164.2 17.5601H164.195L164.174 17.5538C164.031 17.5261 163.888 17.4943 163.747 17.4581C163.366 17.365 162.989 17.2566 162.617 17.133C161.694 16.8249 160.789 16.4063 160.305 15.926C159.822 15.4458 159.397 14.5448 159.083 13.6225C158.91 13.1124 158.766 12.5931 158.651 12.067L158.647 12.0458L158.645 12.0436ZM160.591 18.6141C159.948 18.3124 159.302 17.9235 158.806 17.4326C158.313 16.9439 157.922 16.3 157.616 15.6583C157.313 16.3021 156.924 16.9481 156.433 17.4433C155.944 17.9363 155.3 18.3273 154.658 18.6333C155.302 18.9371 155.948 19.326 156.443 19.8169C156.936 20.3056 157.327 20.9495 157.633 21.5913C157.937 20.9474 158.326 20.3014 158.817 19.8063C159.306 19.3133 159.95 18.9201 160.591 18.6141ZM187.375 14.906C187.798 14.906 188.203 15.0739 188.502 15.3728C188.801 15.6717 188.969 16.0771 188.969 16.4998V17.031H189.5C189.923 17.031 190.328 17.1989 190.627 17.4978C190.926 17.7967 191.094 18.2021 191.094 18.6248C191.094 19.0474 190.926 19.4528 190.627 19.7517C190.328 20.0506 189.923 20.2185 189.5 20.2185H188.969V20.7498C188.969 21.1724 188.801 21.5778 188.502 21.8767C188.203 22.1756 187.798 22.3435 187.375 22.3435C186.952 22.3435 186.547 22.1756 186.248 21.8767C185.949 21.5778 185.781 21.1724 185.781 20.7498V20.2185H185.25C184.827 20.2185 184.422 20.0506 184.123 19.7517C183.824 19.4528 183.656 19.0474 183.656 18.6248C183.656 18.2021 183.824 17.7967 184.123 17.4978C184.422 17.1989 184.827 17.031 185.25 17.031H185.781V16.4998C185.781 16.0771 185.949 15.6717 186.248 15.3728C186.547 15.0739 186.952 14.906 187.375 14.906ZM172.474 21.1323C171.775 22.046 170.983 23.4591 169.812 25.5565L169.221 26.619L169.106 26.823C168.575 27.7856 168.091 28.6548 167.311 29.2455C166.52 29.8469 165.56 30.0615 164.518 30.2953L164.297 30.3441L163.15 30.6055C160.872 31.1198 159.353 31.4683 158.316 31.8763C157.31 32.2736 157.177 32.5669 157.126 32.7305C157.068 32.9133 157.024 33.266 157.625 34.2244C158.241 35.1998 159.282 36.4238 160.829 38.2343L161.614 39.1501L161.758 39.3201C162.476 40.1553 163.114 40.9011 163.409 41.8446C163.7 42.7839 163.603 43.7656 163.494 44.8834L163.473 45.1086L163.352 46.3326C163.118 48.7445 162.965 50.3829 163.016 51.5538C163.069 52.7225 163.314 52.9605 163.426 53.0476C163.513 53.1135 163.749 53.2856 164.795 52.9839C165.861 52.68 167.289 52.0276 169.421 51.0459L170.496 50.5508L170.709 50.453C171.675 50.0068 172.576 49.5881 173.562 49.5881C174.548 49.5881 175.449 50.0046 176.418 50.453L176.629 50.5508L177.704 51.0459C179.835 52.0276 181.263 52.68 182.33 52.986C183.376 53.2835 183.612 53.1135 183.699 53.0476C183.811 52.9626 184.056 52.7246 184.109 51.5538C184.16 50.3829 184.007 48.7445 183.771 46.3326L183.654 45.1086C183.647 45.0328 183.64 44.957 183.633 44.8813C183.522 43.7656 183.425 42.7839 183.718 41.8446C184.011 40.9011 184.649 40.1553 185.367 39.3201L185.511 39.1501L186.295 38.2343C187.845 36.4238 188.886 35.1998 189.5 34.2244C190.103 33.266 190.057 32.9133 189.999 32.7305C189.948 32.5669 189.814 32.2736 188.809 31.8763C187.772 31.4683 186.253 31.1198 183.977 30.6055L182.827 30.3441L182.606 30.2953C181.565 30.0615 180.605 29.8469 179.814 29.2476C179.034 28.6526 178.552 27.7856 178.019 26.8251L177.904 26.619L177.313 25.5565C176.144 23.4591 175.35 22.0439 174.65 21.1323C173.953 20.2228 173.652 20.2185 173.562 20.2185C173.471 20.2185 173.171 20.2228 172.474 21.1323ZM169.944 19.1943C170.817 18.0531 171.941 17.031 173.562 17.031C175.182 17.031 176.308 18.0531 177.181 19.1943C178.04 20.3141 178.945 21.9355 180.033 23.8905L180.688 25.0678C181.408 26.3576 181.563 26.5723 181.742 26.7083C181.912 26.8358 182.13 26.9208 183.531 27.2353L184.812 27.5264C186.92 28.0024 188.686 28.4019 189.976 28.9119C191.325 29.4431 192.566 30.2506 193.042 31.7849C193.516 33.3021 192.976 34.6834 192.197 35.9223C191.442 37.1186 190.246 38.5211 188.803 40.2063L187.934 41.222C186.988 42.3291 186.833 42.5544 186.761 42.7924C186.684 43.0346 186.682 43.3258 186.825 44.8026L186.956 46.152C187.175 48.4045 187.356 50.2703 187.292 51.6983C187.228 53.1518 186.895 54.6223 185.626 55.587C184.33 56.5709 182.832 56.4455 181.453 56.0503C180.12 55.6678 178.469 54.907 176.495 53.9996L175.296 53.4471C173.979 52.8415 173.758 52.7756 173.562 52.7756C173.367 52.7756 173.146 52.8394 171.828 53.4471L170.63 53.9996C168.654 54.907 167.005 55.6678 165.672 56.0503C164.293 56.4455 162.795 56.5709 161.499 55.587C160.23 54.6223 159.897 53.1518 159.833 51.6983C159.769 50.2703 159.95 48.4045 160.169 46.152L160.298 44.8026C160.443 43.3258 160.441 43.0368 160.364 42.7924C160.292 42.5544 160.137 42.3291 159.191 41.222L158.322 40.2063C156.881 38.5211 155.683 37.1186 154.928 35.9223C154.148 34.6834 153.611 33.3021 154.083 31.7849C154.559 30.2485 155.8 29.4431 157.147 28.9119C158.439 28.4019 160.205 28.0024 162.313 27.5264L163.594 27.2353C164.994 26.9186 165.215 26.8358 165.383 26.7083C165.562 26.5723 165.717 26.3576 166.437 25.0678L167.092 23.8905C168.182 21.9355 169.085 20.3141 169.944 19.1943Z" fill="#049A13"/>
<circle cx="172.5" cy="33.5" r="32" stroke="#049A13" stroke-width="3"/>
<line y1="35.5" x2="139" y2="35.5" stroke="#049A13" stroke-width="3"/>
</svg>
