<svg width="216" height="67" viewBox="0 0 216 67" fill="none" xmlns="http://www.w3.org/2000/svg">
<g id="Group 69">
<circle id="Ellipse 19" cx="182.5" cy="33.5" r="32" stroke="black" stroke-width="3"/>
<line id="Line 6" y1="32.5" x2="150" y2="32.5" stroke="black" stroke-width="3"/>
<path id="receive" d="M168.625 17.3125C168.012 17.3125 167.423 17.5561 166.99 17.9898C166.556 18.4235 166.312 19.0117 166.312 19.625V47.375C166.312 47.9883 166.556 48.5765 166.99 49.0102C167.423 49.4439 168.012 49.6875 168.625 49.6875H196.375C196.988 49.6875 197.577 49.4439 198.01 49.0102C198.444 48.5765 198.688 47.9883 198.688 47.375V19.625C198.688 19.0117 198.444 18.4235 198.01 17.9898C197.577 17.5561 196.988 17.3125 196.375 17.3125H185.969C185.355 17.3125 184.767 17.5561 184.334 17.9898C183.9 18.4235 183.656 19.0117 183.656 19.625V36.4901L189.775 30.3689C189.992 30.1518 190.287 30.0298 190.594 30.0298C190.901 30.0298 191.195 30.1518 191.412 30.3689C191.629 30.586 191.751 30.8805 191.751 31.1875C191.751 31.4945 191.629 31.789 191.412 32.0061L183.319 40.0999C183.211 40.2076 183.084 40.293 182.943 40.3513C182.803 40.4096 182.652 40.4396 182.5 40.4396C182.348 40.4396 182.197 40.4096 182.057 40.3513C181.916 40.293 181.789 40.2076 181.681 40.0999L173.588 32.0061C173.48 31.8986 173.395 31.771 173.337 31.6305C173.278 31.4901 173.249 31.3395 173.249 31.1875C173.249 31.0355 173.278 30.8849 173.337 30.7445C173.395 30.604 173.48 30.4764 173.588 30.3689C173.695 30.2614 173.823 30.1761 173.963 30.1179C174.104 30.0597 174.254 30.0298 174.406 30.0298C174.558 30.0298 174.709 30.0597 174.849 30.1179C174.99 30.1761 175.117 30.2614 175.225 30.3689L181.344 36.4901V19.625C181.344 18.3984 181.831 17.222 182.698 16.3546C183.566 15.4873 184.742 15 185.969 15H196.375C197.602 15 198.778 15.4873 199.645 16.3546C200.513 17.222 201 18.3984 201 19.625V47.375C201 48.6016 200.513 49.778 199.645 50.6454C198.778 51.5127 197.602 52 196.375 52H168.625C167.398 52 166.222 51.5127 165.355 50.6454C164.487 49.778 164 48.6016 164 47.375V19.625C164 18.3984 164.487 17.222 165.355 16.3546C166.222 15.4873 167.398 15 168.625 15H174.406C174.713 15 175.007 15.1218 175.224 15.3387C175.441 15.5555 175.562 15.8496 175.562 16.1562C175.562 16.4629 175.441 16.757 175.224 16.9738C175.007 17.1907 174.713 17.3125 174.406 17.3125H168.625Z" fill="black"/>
</g>
</svg>
