<svg width="67" height="67" viewBox="0 0 67 67" fill="none" xmlns="http://www.w3.org/2000/svg">
<g id="Group 66">
<path id="order place" d="M42.9705 48.0741L49.1238 42.0546L47.7675 40.7047L42.9705 45.4045L40.8992 43.3054L39.5407 44.6661L42.9705 48.0741ZM20.0017 24.1833H42.6693V22.0304H19.9995L20.0017 24.1833ZM44.3333 53C41.9197 53 39.8714 52.1647 38.1887 50.494C36.5059 48.8234 35.6652 46.7881 35.6667 44.3884C35.6667 41.9914 36.5073 39.9569 38.1887 38.2848C39.87 36.6128 41.9182 35.7767 44.3333 35.7767C46.747 35.7767 48.7952 36.6128 50.478 38.2848C52.1608 39.9569 53.0014 41.9914 53 44.3884C53 46.7881 52.1593 48.8234 50.478 50.494C48.7938 52.1647 46.7456 53 44.3333 53ZM14 50.1043V14H48.6667V30.276C48.3142 30.1468 47.9639 30.0363 47.6158 29.9445C47.2692 29.8526 46.8972 29.7808 46.5 29.7292V16.1529H16.1667V46.4013H29.912C30.0102 46.9898 30.1373 47.5653 30.2933 48.128C30.4508 48.6906 30.6696 49.2274 30.9498 49.7383L30.874 49.8137L28.417 48.0332L25.5007 50.1022L22.5843 48.0332L19.6658 50.1022L16.7495 48.0332L14 50.1022V50.1043ZM20.0017 40.4162H30.2045C30.2854 40.0215 30.3851 39.6519 30.5035 39.3075C30.6234 38.963 30.7628 38.615 30.9217 38.2633H20.0017V40.4162ZM20.0017 32.3019H35.84C36.5478 31.7465 37.3061 31.2836 38.115 30.9133C38.9239 30.5415 39.7884 30.2868 40.7085 30.149H19.9995L20.0017 32.3019Z" fill="black"/>
<circle id="Ellipse 16" cx="33.5" cy="33.5" r="32" stroke="black" stroke-width="3"/>
</g>
</svg>
