<svg width="201" height="67" viewBox="0 0 201 67" fill="none" xmlns="http://www.w3.org/2000/svg">
<g id="Group 67">
<path id="paid" d="M175 41C175 38.79 168.732 37 161 37M175 41C175 43.21 168.732 45 161 45C153.268 45 147 43.21 147 41M175 41V50.874C175 53.152 168.732 55 161 55C153.268 55 147 53.154 147 50.874V41M175 41C182.648 41 189 39.026 189 37V17M161 37C153.268 37 147 38.79 147 41M161 37C152.164 37 145 35.026 145 33V23M161 19C152.164 19 145 20.79 145 23M145 23C145 25.21 152.164 27 161 27C161 29.026 167.506 31 175.154 31C182.8 31 189 29.026 189 27M189 17C189 14.79 182.8 13 175.154 13C167.506 13 161.308 14.79 161.308 17M189 17C189 19.21 182.8 21 175.154 21C167.508 21 161.308 19.21 161.308 17M161.308 17V37.332" stroke="black" stroke-width="2"/>
<circle id="Ellipse 17" cx="167.5" cy="33.5" r="32" stroke="black" stroke-width="3"/>
<line id="Line 4" y1="32.5" x2="134" y2="32.5" stroke="black" stroke-width="3"/>
</g>
</svg>
