<svg width="218" height="67" viewBox="0 0 218 67" fill="none" xmlns="http://www.w3.org/2000/svg">
<g id="Group 68">
<circle id="Ellipse 18" cx="184.5" cy="33.5" r="32" stroke="#049A13" stroke-width="3"/>
<g id="shipping">
<path id="Vector" d="M182.396 12.545C183.04 12.1876 183.764 12 184.5 12C185.236 12 185.96 12.1876 186.604 12.545L202.886 21.5886C203.224 21.7764 203.505 22.0509 203.701 22.3839C203.897 22.7168 204 23.096 204 23.4823V41.3248C204 42.0975 203.793 42.8562 203.401 43.5221C203.009 44.188 202.446 44.737 201.771 45.1121L186.604 53.5405C185.96 53.8979 185.236 54.0855 184.5 54.0855C183.764 54.0855 183.04 53.8979 182.396 53.5405L167.229 45.1121C166.554 44.7372 165.992 44.1885 165.6 43.523C165.208 42.8575 165.001 42.0993 165 41.327V23.4823C165 23.096 165.103 22.7168 165.299 22.3839C165.495 22.0509 165.776 21.7764 166.114 21.5886L182.396 12.545Z" stroke="#049A13" stroke-width="2" stroke-linecap="round" stroke-linejoin="round"/>
<path id="Vector_2" d="M165 22.2085L184.5 33.0418M184.5 33.0418L204 22.2085M184.5 33.0418V54.7085" stroke="#049A13" stroke-width="2" stroke-linejoin="round"/>
<path id="Vector_3" d="M176.25 35.8333L195.75 25M173 41.9607L179.5 45.5833" stroke="#049A13" stroke-width="2" stroke-linecap="round" stroke-linejoin="round"/>
</g>
<line id="Line 5" y1="34.5" x2="151" y2="34.5" stroke="#049A13" stroke-width="3"/>
</g>
</svg>
